PathFileType	4	(X/Y/Z)	c:/Users/goper/Files/vsCode/490R/osim_files/C11/C11_Slow_05.trc
DataRate	CameraRate	NumFrames	NumMarkers	Units                	OrigDataRate	OrigDataStartFrame	OrigNumFrames
120.00	120.00	8	36	mm	120.0	782	1562
                Frame#	Time	LPSIS			LASIS			LTH1			LTH2			LTH3			LTH4			LLFE			LMFE			LSH1			LSH2			LSH3			LSH4			LLMAL			LMMAL			LCAL			LMTP5			LTOE			LMTP1			RPSIS			RASIS			RTH1			RTH2			RTH3			RTH4			RLFE			RMFE			RSH1			RSH2			RSH3			RSH4			RLMAL			RMMAL			RCAL			RMTP1			RTOE			RMTP5		
		X1	Y1	Z1	X2	Y2	Z2	X3	Y3	Z3	X4	Y4	Z4	X5	Y5	Z5	X6	Y6	Z6	X7	Y7	Z7	X8	Y8	Z8	X9	Y9	Z9	X10	Y10	Z10	X11	Y11	Z11	X12	Y12	Z12	X13	Y13	Z13	X14	Y14	Z14	X15	Y15	Z15	X16	Y16	Z16	X17	Y17	Z17	X18	Y18	Z18	X19	Y19	Z19	X20	Y20	Z20	X21	Y21	Z21	X22	Y22	Z22	X23	Y23	Z23	X24	Y24	Z24	X25	Y25	Z25	X26	Y26	Z26	X27	Y27	Z27	X28	Y28	Z28	X29	Y29	Z29	X30	Y30	Z30	X31	Y31	Z31	X32	Y32	Z32	X33	Y33	Z33	X34	Y34	Z34	X35	Y35	Z35	X36	Y36	Z36

782	6.50833	-531.52441	999.31812	269.37311	-704.01855	1008.65759	344.14975	-750.82275	626.68134	392.89618	-772.60986	585.32977	389.48007	-803.80566	648.42450	408.96234	-819.54865	604.73291	400.59442	0.00000	0.00000	0.00000	0.00000	0.00000	0.00000	-721.03003	485.98492	396.14111	-695.76105	449.50067	398.55353	-768.21912	448.42801	410.40277	-736.61066	416.73798	411.81549	-549.52704	222.44145	363.42310	-595.44751	205.70717	277.43277	-490.55783	217.61261	298.78009	-602.12799	117.05988	413.37689	-681.99207	88.29665	362.37424	-647.16809	88.13345	310.98392	-540.80621	1015.86456	184.55891	-711.03870	999.13116	111.99068	-660.87262	631.91486	85.50604	-668.38196	589.66205	94.18325	-722.81061	637.51282	97.64207	-719.66699	595.68469	102.41935	-692.53857	508.88821	115.95987	-665.70569	495.07376	226.92110	-623.67609	400.01511	102.48006	-626.31329	354.24265	107.29121	-686.20984	396.01303	111.81455	-678.95172	349.22620	113.78049	-626.20038	95.65037	170.09274	-655.18811	107.19601	266.25296	-566.50525	60.60618	226.78995	-783.29224	51.56460	242.04865	-785.38696	65.02087	191.47282	-742.24091	41.32533	131.94226
783	6.51667	-538.62482	999.85492	269.98776	-711.25122	1009.39447	344.09851	-762.46545	629.14758	394.19321	-785.65503	587.28271	391.09607	-814.71118	651.57745	410.03842	-831.07593	608.11218	401.66489	0.00000	0.00000	0.00000	0.00000	0.00000	0.00000	-734.58630	484.95193	396.81799	-709.51703	446.55228	401.72559	-782.72717	449.73737	411.90125	-752.32501	416.84610	413.42322	-574.07599	214.24532	365.26859	-620.58685	199.14606	279.45767	-515.34985	206.47775	300.87784	-631.28839	111.75547	415.82025	-712.44647	86.45144	365.07654	-677.79297	84.38956	313.52039	-547.73517	1016.45758	185.13815	-718.06219	999.50055	111.98071	-663.61462	632.43378	85.44464	-670.52832	590.13641	93.89012	-725.53259	637.25897	97.43239	-721.93231	595.57910	102.07079	-693.88708	508.70679	115.55723	-666.67981	495.10107	226.87408	-624.42499	400.02356	102.01997	-626.84149	354.32352	106.96276	-686.28448	396.07132	111.04636	-679.48090	349.05539	113.51526	-626.23199	95.61487	170.07182	-655.22247	107.23446	266.25641	-566.57983	60.48996	226.74954	-783.25470	51.54235	242.05733	-785.34656	64.97264	191.45883	-742.22339	41.29203	131.90727
784	6.52500	-545.79773	1000.35815	270.60202	-718.54797	1009.99780	344.14578	-772.93463	631.24207	395.73718	-796.82178	589.82983	392.77579	-826.11145	654.76794	410.05435	-842.04065	611.24548	402.77075	0.00000	0.00000	0.00000	0.00000	0.00000	0.00000	-747.34973	483.91379	397.99487	-724.23529	444.68900	402.95709	-797.01648	450.64636	413.34610	-767.98401	416.55957	414.90158	-599.16443	205.78091	367.15152	-645.75745	192.43863	281.34613	-541.22839	194.86101	302.57526	-661.13464	106.33680	418.02524	-743.58301	84.71397	367.26630	-708.21893	80.41220	315.91718	-554.73633	1016.91107	185.66284	-724.82385	999.61530	111.88359	-666.35925	632.91931	85.35445	-672.82916	590.50476	93.64969	-728.40118	637.03119	97.28039	-724.27649	595.37329	101.78933	-695.11328	508.66898	115.04313	-667.89282	495.14230	226.57086	-625.15601	400.07114	101.62588	-627.46490	354.40668	106.59599	-687.14490	395.82623	110.67220	-680.87952	348.64462	113.61983	-626.31647	95.59792	170.14095	-655.20038	107.25410	266.24713	-567.02350	60.17621	226.85931	-783.22540	51.55958	242.03716	-785.32819	64.93860	191.44029	-742.17474	41.27199	131.86118
785	6.53333	-553.13251	1000.67841	271.17239	-726.09796	1010.53302	344.18042	-783.29266	632.78748	396.99405	-807.45898	591.91028	394.37027	-836.11438	657.34027	410.98141	-852.56323	613.87463	403.79041	0.00000	0.00000	0.00000	0.00000	0.00000	0.00000	-760.07269	482.20920	399.38455	-739.13110	442.53149	404.07642	-811.02246	451.06873	414.78528	-783.52771	415.81769	416.30496	-624.86200	197.15666	369.10498	-671.99554	185.75739	283.18274	-567.38269	182.94493	304.25684	-691.94800	100.65472	420.20139	-774.85370	82.79172	369.03314	-740.09351	77.56325	318.21234	-561.78558	1017.19141	186.30289	-731.66547	999.62909	111.90122	-669.19305	633.40228	85.18256	-675.20044	590.92493	93.37119	-731.32697	636.76709	97.13406	-726.71301	595.17664	101.47437	-696.42480	508.51959	114.59725	-669.48700	495.07578	226.14819	-625.97070	400.15063	101.27027	-628.11017	354.46002	106.28136	-688.65375	395.52615	110.62030	-680.79749	348.71814	112.89792	-626.18170	95.58199	170.04491	-653.67462	106.49924	266.41971	-567.00592	60.19959	226.89803	-782.79352	51.15473	242.13939	-785.19366	64.65823	191.53137	-742.15558	41.25969	131.81361
786	6.54167	-560.34515	1000.89795	271.90686	-733.54352	1010.73938	344.23233	-793.01526	634.01276	398.21198	-816.75726	593.46851	397.01276	-845.53998	659.40240	411.84656	-862.15002	615.95734	405.09616	0.00000	0.00000	0.00000	0.00000	0.00000	0.00000	-772.65216	479.96567	400.95074	-752.99976	439.76767	405.77542	-824.90070	451.11676	416.15488	-799.03668	414.66916	417.66122	-651.04755	188.46394	371.06580	-698.41516	179.15320	285.02707	-593.66388	171.54936	306.69839	-722.93536	95.42190	422.23190	-806.38953	81.53951	370.73151	-771.64557	73.90924	320.26508	-568.95966	1017.34979	186.96321	-738.49188	999.45172	111.95531	-672.21875	633.80817	85.04769	-678.03735	590.87640	93.31652	-734.31036	636.48938	96.98389	-730.09552	593.84430	102.12526	-697.79358	508.31540	114.08067	-671.09265	494.98077	225.80009	-626.76678	400.22476	101.03622	-628.70953	354.49200	106.05930	-688.66187	395.58942	109.78410	-681.31787	348.59686	112.46766	-626.30133	95.51403	170.13945	-655.51935	108.01060	264.30612	-566.97516	60.27708	226.97050	-782.82001	51.16741	242.05974	-785.18707	64.64143	191.46024	-742.16254	41.23616	131.75880
787	6.55000	-567.58643	1001.04132	272.61526	-741.03534	1010.84821	344.35330	-802.18994	634.88745	399.38339	-825.66016	595.15778	398.64206	-854.55609	660.97101	412.65833	-871.46600	617.55432	406.09912	0.00000	0.00000	0.00000	0.00000	0.00000	0.00000	-784.33746	477.47623	403.17325	-767.67114	436.61133	406.63510	-838.53766	450.70105	417.62665	-814.35815	413.09583	419.05176	-677.59277	179.89993	373.12906	-725.29370	172.57130	286.82208	-621.15131	159.90562	308.85150	-754.24384	90.36802	424.10110	-838.37848	80.89425	372.57721	-803.64923	70.84903	322.05756	-576.15460	1017.52759	187.52103	-745.48962	999.27112	112.01753	-675.21228	634.17810	84.80537	-680.56683	591.20721	92.94367	-737.43024	636.16333	96.90261	-732.67554	593.57367	101.89404	-699.15143	508.15500	113.63952	-672.46667	494.90121	225.54294	-627.47412	400.27704	100.88377	-629.30145	354.56653	105.83907	-689.37085	395.47098	109.28685	-681.74365	348.68173	111.83571	-626.09357	95.55576	170.05826	-656.30371	107.88986	264.62622	-566.96790	60.25231	227.01074	-782.75958	51.12202	242.02107	-785.19049	64.62938	191.42056	-742.14594	41.19064	131.72397
788	6.55833	-574.89160	1001.06860	273.33151	-748.55151	1010.79633	344.57288	-810.79071	635.36877	400.44418	-835.09277	595.28186	399.74863	-862.84814	662.06085	413.54953	-880.10675	618.63934	407.07022	0.00000	0.00000	0.00000	0.00000	0.00000	0.00000	-796.98114	473.87326	404.64688	-781.75562	432.44476	408.60666	-851.83191	449.88263	419.09848	-829.61816	411.16266	420.55005	-705.52618	170.50150	374.41599	-752.61121	166.13768	288.66833	-649.09143	148.71141	310.78894	-785.46259	85.74635	425.96011	-870.31976	80.00718	374.27264	-836.30127	69.06068	323.37903	-583.40552	1017.43018	188.23288	-752.48694	998.94501	112.23788	-678.24451	634.56512	84.54221	-683.24872	591.41156	92.72054	-740.64221	635.82172	96.77583	-735.38531	593.24548	101.69588	-700.53168	507.99768	113.25040	-674.06689	494.78339	225.15343	-628.12341	400.36331	100.76051	-629.80988	354.65918	105.66902	-690.06622	395.33810	108.92343	-682.28912	348.57956	111.43689	-626.10284	95.54033	170.06653	-657.26251	107.70277	264.11856	-566.72754	60.20740	227.26733	-782.79150	51.13444	242.00867	-785.17072	64.59210	191.40941	-742.14270	41.13671	131.69513
789	6.56667	-582.29028	1001.04590	274.03839	-756.16785	1010.65735	344.90875	-818.75006	635.44586	401.40033	-843.33368	595.60425	400.84821	-870.74146	662.58472	414.36807	-888.02448	619.20795	407.83078	0.00000	0.00000	0.00000	0.00000	0.00000	0.00000	-808.90314	470.08438	406.70517	-795.96893	428.18298	411.33517	-865.15576	448.76492	420.53372	-844.79004	409.05563	422.04114	-732.94952	162.05418	376.21121	-780.51208	160.09508	290.36359	-678.40314	137.20982	312.84033	-817.75226	81.32953	427.78909	-902.15320	79.89816	375.94199	-868.34222	67.02605	325.70825	-590.64606	1017.44647	188.83110	-759.46112	998.61456	112.45331	-681.38080	634.80896	84.36849	-685.88873	591.62158	92.42212	-743.71680	635.37616	96.72378	-738.07343	592.89374	101.52357	-702.00830	507.70010	112.88049	-675.61340	494.85483	224.89055	-628.70923	400.47156	100.58425	-630.18738	354.69678	105.50311	-691.00287	394.86871	108.34023	-682.87378	348.30237	111.27641	-626.07159	95.47260	170.07277	-657.22308	107.69202	264.13849	-566.76471	60.17513	227.23793	-783.22766	51.69180	241.49440	-785.16132	64.55241	191.38855	-742.11035	41.07256	131.64519
